<svg width="40" height="40" viewBox="0 0 40 40" fill="none" xmlns="http://www.w3.org/2000/svg">
<rect width="40" height="40" rx="8" fill="#2C74FF"/>
<path d="M24.2578 14.7734L18.1434 14.7734L19.8268 12.276C20.5517 11.2004 20.9141 10.6627 21.4141 10.6803C21.914 10.6979 22.2377 11.2599 22.885 12.3838L23.2636 13.041L24.2578 14.7734Z" fill="white"/>
<path d="M30.9359 19.0316C30.4139 20.2069 30.1528 20.7945 29.6463 21.1238C29.1397 21.4531 28.4967 21.4531 27.2106 21.4531L8.46004 21.4531L10.3072 18.6807C10.8995 17.7917 11.1957 17.3472 11.6464 17.1059C12.0971 16.8646 12.6312 16.8646 13.6995 16.8646L31.8984 16.8646L30.9359 19.0316Z" fill="white"/>
<path d="M18.2875 27.3953C17.7205 28.4215 17.4369 28.9346 16.9577 29.2173C16.4785 29.5 15.8923 29.5 14.7198 29.5L11.0101 29.5L14.6366 22.9375C15.2037 21.9113 15.4873 21.3982 15.9665 21.1155C16.4457 20.8328 17.0319 20.8328 18.2043 20.8328L21.9141 20.8328L18.2875 27.3953Z" fill="white"/>
<path d="M24.7028 27.5025C25.2811 28.4779 25.5702 28.9656 26.0392 29.2328C26.5083 29.5 27.0752 29.5 28.2091 29.5L32.0014 29.5L29.6189 25.4814C29.0406 24.506 28.7515 24.0183 28.2825 23.7511C27.8134 23.4839 27.2465 23.4839 26.1126 23.4839L22.3203 23.4839L24.7028 27.5025Z" fill="white"/>
</svg>
