<svg width="280" height="280" viewBox="0 0 280 280" fill="none" xmlns="http://www.w3.org/2000/svg">
<path d="M234.831 103.115L227.45 243.641L133.941 238.736L134.725 223.84L141.322 98.1982L200.201 101.289L234.831 103.115Z" fill="white"/>
<mask id="mask0_5813_80856" style="mask-type:luminance" maskUnits="userSpaceOnUse" x="133" y="98" width="102" height="146">
<path d="M234.831 103.115L227.45 243.641L133.941 238.736L134.725 223.84L141.322 98.1982L200.201 101.289L234.831 103.115Z" fill="white"/>
</mask>
<g mask="url(#mask0_5813_80856)">
<path opacity="0.2" d="M205.643 185.446L184.576 187.182L190.725 213.715L134.725 223.84L141.321 98.1982L200.2 101.289L205.643 185.446Z" fill="black" fill-opacity="0.7"/>
</g>
<path d="M234.831 103.115L227.45 243.641L133.941 238.736L134.725 223.84L141.322 98.1982L200.201 101.289L234.831 103.115Z" stroke="#263238" stroke-width="1.12" stroke-linecap="round" stroke-linejoin="round"/>
<path d="M147.92 107.808L172.258 109.084" stroke="#263238" stroke-width="2.24" stroke-linecap="round" stroke-linejoin="round"/>
<path d="M147.672 112.479L164.225 113.352" stroke="#263238" stroke-width="2.24" stroke-linecap="round" stroke-linejoin="round"/>
<path d="M153.027 123.824L223.027 127.498" stroke="#263238" stroke-width="2.24" stroke-linecap="round" stroke-linejoin="round"/>
<path d="M152.781 128.494L222.781 132.168" stroke="#263238" stroke-width="2.24" stroke-linecap="round" stroke-linejoin="round"/>
<path d="M152.5 133.949L212.196 137.074" stroke="#263238" stroke-width="2.24" stroke-linecap="round" stroke-linejoin="round"/>
<path d="M152.524 138.924L152.225 144.617L157.918 144.917L158.217 139.224L152.524 138.924Z" stroke="#263238" stroke-width="1.12" stroke-linecap="round" stroke-linejoin="round"/>
<path d="M162.844 139.471L162.545 145.164L168.238 145.463L168.537 139.77L162.844 139.471Z" stroke="#263238" stroke-width="1.12" stroke-linecap="round" stroke-linejoin="round"/>
<path d="M173.151 140.018L172.852 145.711L178.544 146.01L178.844 140.317L173.151 140.018Z" stroke="#263238" stroke-width="1.12" stroke-linecap="round" stroke-linejoin="round"/>
<path d="M183.469 140.564L183.17 146.257L188.863 146.556L189.162 140.863L183.469 140.564Z" stroke="#263238" stroke-width="1.12" stroke-linecap="round" stroke-linejoin="round"/>
<path d="M149.297 123.622C149.29 123.808 149.246 123.99 149.169 124.158C149.091 124.327 148.981 124.478 148.845 124.604C148.708 124.73 148.549 124.828 148.374 124.892C148.2 124.956 148.015 124.985 147.83 124.978C147.453 124.958 147.099 124.79 146.846 124.509C146.592 124.229 146.461 123.86 146.48 123.482C146.5 123.105 146.668 122.751 146.948 122.498C147.229 122.245 147.598 122.113 147.976 122.133C148.161 122.141 148.343 122.186 148.511 122.265C148.679 122.344 148.829 122.456 148.954 122.593C149.079 122.73 149.176 122.891 149.238 123.066C149.301 123.24 149.329 123.426 149.32 123.611L149.297 123.622Z" fill="#263238"/>
<path d="M151.592 151.073L221.592 154.747" stroke="#263238" stroke-width="2.24" stroke-linecap="round" stroke-linejoin="round"/>
<path d="M151.346 155.744L221.346 159.418" stroke="#263238" stroke-width="2.24" stroke-linecap="round" stroke-linejoin="round"/>
<path d="M151.066 161.198L210.762 164.323" stroke="#263238" stroke-width="2.24" stroke-linecap="round" stroke-linejoin="round"/>
<path d="M151.079 166.192L150.779 171.885L156.472 172.184L156.772 166.491L151.079 166.192Z" stroke="#263238" stroke-width="1.12" stroke-linecap="round" stroke-linejoin="round"/>
<path d="M161.409 166.727L161.109 172.42L166.802 172.719L167.102 167.026L161.409 166.727Z" stroke="#263238" stroke-width="1.12" stroke-linecap="round" stroke-linejoin="round"/>
<path d="M171.715 167.262L171.416 172.955L177.109 173.254L177.408 167.561L171.715 167.262Z" stroke="#263238" stroke-width="1.12" stroke-linecap="round" stroke-linejoin="round"/>
<path d="M182.024 167.809L181.725 173.502L187.418 173.801L187.717 168.108L182.024 167.809Z" stroke="#263238" stroke-width="1.12" stroke-linecap="round" stroke-linejoin="round"/>
<path d="M147.874 150.872C147.865 151.059 147.82 151.242 147.74 151.411C147.661 151.58 147.549 151.732 147.41 151.858C147.272 151.984 147.11 152.082 146.934 152.145C146.758 152.208 146.571 152.236 146.384 152.227C146.101 152.213 145.829 152.116 145.601 151.948C145.373 151.779 145.2 151.547 145.104 151.28C145.008 151.014 144.993 150.724 145.062 150.449C145.13 150.174 145.278 149.926 145.488 149.735C145.698 149.544 145.959 149.42 146.239 149.377C146.519 149.335 146.806 149.377 147.062 149.497C147.319 149.618 147.534 149.812 147.681 150.054C147.827 150.297 147.898 150.577 147.885 150.86L147.874 150.872Z" fill="#263238"/>
<path d="M150.17 178.323L220.159 181.997" stroke="#263238" stroke-width="2.24" stroke-linecap="round" stroke-linejoin="round"/>
<path d="M149.924 182.993L219.913 186.667" stroke="#263238" stroke-width="2.24" stroke-linecap="round" stroke-linejoin="round"/>
<path d="M149.633 188.437L209.329 191.573" stroke="#263238" stroke-width="2.24" stroke-linecap="round" stroke-linejoin="round"/>
<path d="M149.657 193.424L149.357 199.117L155.05 199.417L155.35 193.724L149.657 193.424Z" stroke="#263238" stroke-width="1.12" stroke-linecap="round" stroke-linejoin="round"/>
<path d="M161.183 193.937L160.898 199.642L166.603 199.927L166.888 194.222L161.183 193.937Z" stroke="#263238" stroke-width="1.1214" stroke-linecap="round" stroke-linejoin="round"/>
<path d="M170.282 194.519L169.982 200.212L175.675 200.511L175.975 194.818L170.282 194.519Z" stroke="#263238" stroke-width="1.12" stroke-linecap="round" stroke-linejoin="round"/>
<path d="M180.612 195.053L180.312 200.746L186.005 201.045L186.305 195.353L180.612 195.053Z" stroke="#263238" stroke-width="1.12" stroke-linecap="round" stroke-linejoin="round"/>
<path d="M146.441 178.121C146.432 178.308 146.387 178.492 146.307 178.661C146.228 178.83 146.115 178.982 145.977 179.108C145.839 179.234 145.677 179.331 145.501 179.394C145.325 179.458 145.138 179.486 144.951 179.477C144.571 179.477 144.206 179.326 143.937 179.057C143.669 178.788 143.518 178.423 143.518 178.043C143.518 177.663 143.669 177.298 143.937 177.029C144.206 176.76 144.571 176.609 144.951 176.609H145.153C145.34 176.618 145.523 176.663 145.692 176.743C145.862 176.823 146.013 176.935 146.139 177.073C146.265 177.211 146.363 177.373 146.426 177.549C146.489 177.725 146.517 177.912 146.508 178.099L146.441 178.121Z" fill="#263238"/>
<path d="M148.691 206.346L218.68 210.031" stroke="#263238" stroke-width="2.24" stroke-linecap="round" stroke-linejoin="round"/>
<path d="M148.445 211.016L218.445 214.7" stroke="#263238" stroke-width="2.24" stroke-linecap="round" stroke-linejoin="round"/>
<path d="M148.166 216.471L207.862 219.607" stroke="#263238" stroke-width="2.24" stroke-linecap="round" stroke-linejoin="round"/>
<path d="M148.172 221.461L147.873 227.154L153.566 227.454L153.865 221.761L148.172 221.461Z" stroke="#263238" stroke-width="1.12" stroke-linecap="round" stroke-linejoin="round"/>
<path d="M158.504 221.997L158.205 227.689L163.898 227.989L164.197 222.296L158.504 221.997Z" stroke="#263238" stroke-width="1.12" stroke-linecap="round" stroke-linejoin="round"/>
<path d="M168.833 222.532L168.533 228.225L174.226 228.524L174.525 222.831L168.833 222.532Z" stroke="#263238" stroke-width="1.12" stroke-linecap="round" stroke-linejoin="round"/>
<path d="M179.141 223.09L178.842 228.783L184.535 229.083L184.834 223.39L179.141 223.09Z" stroke="#263238" stroke-width="1.12" stroke-linecap="round" stroke-linejoin="round"/>
<path d="M144.962 206.155C144.946 206.436 144.847 206.706 144.678 206.93C144.509 207.155 144.277 207.324 144.012 207.417C143.746 207.51 143.459 207.522 143.187 207.452C142.915 207.382 142.669 207.233 142.482 207.024C142.294 206.814 142.173 206.554 142.133 206.276C142.094 205.997 142.137 205.713 142.259 205.46C142.38 205.206 142.574 204.995 142.816 204.851C143.058 204.708 143.337 204.639 143.618 204.654C143.805 204.664 143.988 204.711 144.156 204.792C144.325 204.873 144.476 204.986 144.601 205.126C144.726 205.265 144.822 205.428 144.884 205.605C144.946 205.781 144.972 205.968 144.962 206.155Z" fill="#263238"/>
<path d="M154.461 141.296L155.2 142.572L158.235 139.224" stroke="#263238" stroke-width="2.24" stroke-linecap="round" stroke-linejoin="round"/>
<path d="M173.68 169.285L174.419 170.562L177.454 167.213" stroke="#263238" stroke-width="2.24" stroke-linecap="round" stroke-linejoin="round"/>
<path d="M183.322 198.046L184.061 199.323L187.097 195.963" stroke="#263238" stroke-width="2.24" stroke-linecap="round" stroke-linejoin="round"/>
<path d="M160.475 223.717L161.214 224.983L164.249 221.634" stroke="#263238" stroke-width="2.24" stroke-linecap="round" stroke-linejoin="round"/>
<path d="M172.694 203.87L82.4776 228.947L44.8008 93.3488L82.1528 82.9664L135.017 68.2832L169.199 191.304L172.694 203.87Z" fill="white"/>
<mask id="mask1_5813_80856" style="mask-type:luminance" maskUnits="userSpaceOnUse" x="44" y="68" width="129" height="161">
<path d="M172.694 203.87L82.4776 228.947L44.8008 93.3488L82.1528 82.9664L135.017 68.2832L169.199 191.304L172.694 203.87Z" fill="white"/>
</mask>
<g mask="url(#mask1_5813_80856)">
<path opacity="0.2" d="M169.199 191.304L99.4451 195.818L82.1523 82.9664L135.016 68.2832L169.199 191.304Z" fill="black" fill-opacity="0.7"/>
</g>
<path d="M172.694 203.87L82.4776 228.947L44.8008 93.3488L82.1528 82.9664L135.017 68.2832L169.199 191.304L172.694 203.87Z" stroke="#263238" stroke-width="1.12" stroke-linecap="round" stroke-linejoin="round"/>
<path d="M54.1191 100.36L77.5943 93.8418" stroke="#263238" stroke-width="2.24" stroke-linecap="round" stroke-linejoin="round"/>
<path d="M55.3613 104.874L71.3325 100.438" stroke="#263238" stroke-width="2.24" stroke-linecap="round" stroke-linejoin="round"/>
<path d="M64.043 113.923L131.579 95.1631" stroke="#263238" stroke-width="2.24" stroke-linecap="round" stroke-linejoin="round"/>
<path d="M65.2969 118.426L132.833 99.666" stroke="#263238" stroke-width="2.24" stroke-linecap="round" stroke-linejoin="round"/>
<path d="M66.752 123.689L124.354 107.685" stroke="#263238" stroke-width="2.24" stroke-linecap="round" stroke-linejoin="round"/>
<path d="M73.8696 126.876L68.377 128.402L69.9033 133.895L75.396 132.369L73.8696 126.876Z" stroke="#263238" stroke-width="1.12" stroke-linecap="round" stroke-linejoin="round"/>
<path d="M83.8286 124.099L78.3359 125.625L79.8623 131.118L85.355 129.591L83.8286 124.099Z" stroke="#263238" stroke-width="1.12" stroke-linecap="round" stroke-linejoin="round"/>
<path d="M93.7895 121.329L88.2969 122.855L89.8232 128.348L95.3159 126.822L93.7895 121.329Z" stroke="#263238" stroke-width="1.12" stroke-linecap="round" stroke-linejoin="round"/>
<path d="M103.733 118.568L98.2402 120.095L99.7666 125.587L105.259 124.061L103.733 118.568Z" stroke="#263238" stroke-width="1.12" stroke-linecap="round" stroke-linejoin="round"/>
<path d="M60.4482 114.92C60.5492 115.284 60.5015 115.673 60.3156 116.002C60.1297 116.33 59.8209 116.572 59.457 116.673C59.0931 116.774 58.704 116.726 58.3753 116.54C58.0466 116.354 57.8052 116.045 57.7042 115.682C57.6032 115.318 57.6509 114.929 57.8368 114.6C58.0227 114.271 58.3315 114.03 58.6954 113.929C59.0593 113.828 59.4484 113.876 59.7771 114.061C60.1058 114.247 60.3472 114.556 60.4482 114.92Z" fill="#263238"/>
<path d="M71.3457 140.209L138.882 121.449" stroke="#263238" stroke-width="2.24" stroke-linecap="round" stroke-linejoin="round"/>
<path d="M72.5996 144.723L140.136 125.952" stroke="#263238" stroke-width="2.24" stroke-linecap="round" stroke-linejoin="round"/>
<path d="M74.0664 149.976L131.657 133.971" stroke="#263238" stroke-width="2.24" stroke-linecap="round" stroke-linejoin="round"/>
<path d="M81.1782 153.156L75.6855 154.683L77.2119 160.175L82.7046 158.649L81.1782 153.156Z" stroke="#263238" stroke-width="1.12" stroke-linecap="round" stroke-linejoin="round"/>
<path d="M91.1294 150.393L85.6367 151.919L87.1631 157.412L92.6557 155.885L91.1294 150.393Z" stroke="#263238" stroke-width="1.12" stroke-linecap="round" stroke-linejoin="round"/>
<path d="M101.092 147.626L95.5996 149.152L97.126 154.645L102.619 153.119L101.092 147.626Z" stroke="#263238" stroke-width="1.12" stroke-linecap="round" stroke-linejoin="round"/>
<path d="M111.061 144.846L105.568 146.372L107.095 151.865L112.587 150.338L111.061 144.846Z" stroke="#263238" stroke-width="1.12" stroke-linecap="round" stroke-linejoin="round"/>
<path d="M67.7603 141.218C67.8361 141.491 67.8292 141.78 67.7407 142.049C67.6521 142.318 67.4857 142.555 67.2626 142.73C67.0396 142.905 66.7697 143.009 66.4872 143.031C66.2047 143.052 65.9222 142.989 65.6753 142.85C65.4285 142.711 65.2284 142.502 65.1002 142.249C64.9721 141.997 64.9218 141.712 64.9555 141.43C64.9893 141.149 65.1056 140.884 65.2899 140.669C65.4741 140.454 65.718 140.298 65.9907 140.221C66.1709 140.17 66.3594 140.155 66.5454 140.177C66.7314 140.199 66.9113 140.257 67.0747 140.349C67.238 140.44 67.3817 140.563 67.4975 140.71C67.6132 140.858 67.6987 141.026 67.7491 141.207L67.7603 141.218Z" fill="#263238"/>
<path d="M78.6582 166.508L146.183 147.736" stroke="#263238" stroke-width="2.24" stroke-linecap="round" stroke-linejoin="round"/>
<path d="M79.9121 171.01L147.437 152.25" stroke="#263238" stroke-width="2.24" stroke-linecap="round" stroke-linejoin="round"/>
<path d="M81.3691 176.273L138.971 160.269" stroke="#263238" stroke-width="2.24" stroke-linecap="round" stroke-linejoin="round"/>
<path d="M88.477 179.442L82.9844 180.969L84.5107 186.461L90.0034 184.935L88.477 179.442Z" stroke="#263238" stroke-width="1.12" stroke-linecap="round" stroke-linejoin="round"/>
<path d="M98.4497 176.673L92.957 178.199L94.4834 183.692L99.976 182.166L98.4497 176.673Z" stroke="#263238" stroke-width="1.12" stroke-linecap="round" stroke-linejoin="round"/>
<path d="M108.389 173.91L102.896 175.437L104.423 180.929L109.915 179.403L108.389 173.91Z" stroke="#263238" stroke-width="1.12" stroke-linecap="round" stroke-linejoin="round"/>
<path d="M118.35 171.144L112.857 172.67L114.384 178.163L119.876 176.636L118.35 171.144Z" stroke="#263238" stroke-width="1.12" stroke-linecap="round" stroke-linejoin="round"/>
<path d="M75.0631 167.504C75.1388 167.777 75.132 168.066 75.0434 168.335C74.9548 168.605 74.7885 168.841 74.5654 169.016C74.3423 169.191 74.0725 169.295 73.7899 169.317C73.5074 169.338 73.2249 169.275 72.9781 169.136C72.7312 168.997 72.5311 168.788 72.403 168.535C72.2749 168.283 72.2245 167.998 72.2583 167.716C72.292 167.435 72.4083 167.17 72.5926 166.955C72.7768 166.74 73.0207 166.584 73.2935 166.507C73.4736 166.456 73.6621 166.441 73.8482 166.463C74.0342 166.485 74.214 166.543 74.3774 166.635C74.5408 166.726 74.6845 166.849 74.8002 166.997C74.916 167.144 75.0015 167.312 75.0519 167.493L75.0631 167.504Z" fill="#263238"/>
<path d="M86.1738 193.544L153.699 174.784" stroke="#263238" stroke-width="2.24" stroke-linecap="round" stroke-linejoin="round"/>
<path d="M87.416 198.057L154.952 179.286" stroke="#263238" stroke-width="2.24" stroke-linecap="round" stroke-linejoin="round"/>
<path d="M88.8848 203.31L146.486 187.306" stroke="#263238" stroke-width="2.24" stroke-linecap="round" stroke-linejoin="round"/>
<path d="M95.9946 206.492L90.502 208.019L92.0283 213.511L97.521 211.985L95.9946 206.492Z" stroke="#263238" stroke-width="1.12" stroke-linecap="round" stroke-linejoin="round"/>
<path d="M105.954 203.724L100.461 205.25L101.987 210.743L107.48 209.216L105.954 203.724Z" stroke="#263238" stroke-width="1.12" stroke-linecap="round" stroke-linejoin="round"/>
<path d="M115.916 200.957L110.424 202.483L111.95 207.976L117.443 206.45L115.916 200.957Z" stroke="#263238" stroke-width="1.12" stroke-linecap="round" stroke-linejoin="round"/>
<path d="M125.866 198.193L120.373 199.72L121.899 205.212L127.392 203.686L125.866 198.193Z" stroke="#263238" stroke-width="1.12" stroke-linecap="round" stroke-linejoin="round"/>
<path d="M82.5775 194.541C82.6829 194.906 82.6389 195.299 82.4551 195.631C82.2714 195.964 81.9628 196.211 81.5975 196.316C81.2321 196.422 80.8398 196.377 80.5069 196.194C80.174 196.01 79.9277 195.701 79.8223 195.336C79.7184 194.969 79.7637 194.576 79.9483 194.243C80.1329 193.909 80.4419 193.662 80.8079 193.555C81.1702 193.455 81.5576 193.5 81.8865 193.683C82.2154 193.865 82.4596 194.169 82.5663 194.53L82.5775 194.541Z" fill="#263238"/>
<path d="M80.3262 127.42L81.435 128.394L83.2494 124.25" stroke="#263238" stroke-width="2.24" stroke-linecap="round" stroke-linejoin="round"/>
<path d="M77.627 156.752L78.7358 157.726L80.539 153.582" stroke="#263238" stroke-width="2.24" stroke-linecap="round" stroke-linejoin="round"/>
<path d="M84.9297 182.769L86.0385 183.744L87.8417 179.6" stroke="#263238" stroke-width="2.24" stroke-linecap="round" stroke-linejoin="round"/>
<path d="M112.336 204.083L113.445 205.057L115.259 200.913" stroke="#263238" stroke-width="2.24" stroke-linecap="round" stroke-linejoin="round"/>
<path d="M181.503 36.96L88.3008 45.918L101.765 186L194.967 177.042L181.503 36.96Z" fill="white" stroke="#263238" stroke-width="1.12" stroke-linecap="round" stroke-linejoin="round"/>
<path d="M96.2422 54.4624L120.501 52.1328" stroke="#263238" stroke-width="2.24" stroke-linecap="round" stroke-linejoin="round"/>
<path d="M96.6914 59.1216L113.189 57.5312" stroke="#263238" stroke-width="2.24" stroke-linecap="round" stroke-linejoin="round"/>
<path d="M103.656 69.5486L173.421 62.8398" stroke="#263238" stroke-width="2.24" stroke-linecap="round" stroke-linejoin="round"/>
<path d="M104.105 74.1966L173.87 67.499" stroke="#263238" stroke-width="2.24" stroke-linecap="round" stroke-linejoin="round"/>
<path d="M104.631 79.629L164.136 73.917" stroke="#263238" stroke-width="2.24" stroke-linecap="round" stroke-linejoin="round"/>
<path d="M111.091 83.9976L105.416 84.543L105.961 90.2176L111.636 89.6722L111.091 83.9976Z" stroke="#263238" stroke-width="1.12" stroke-linecap="round" stroke-linejoin="round"/>
<path d="M121.376 83.0054L115.701 83.5508L116.247 89.2254L121.921 88.68L121.376 83.0054Z" stroke="#263238" stroke-width="1.12" stroke-linecap="round" stroke-linejoin="round"/>
<path d="M131.661 82.0269L125.986 82.5723L126.532 88.2469L132.206 87.7015L131.661 82.0269Z" stroke="#263238" stroke-width="1.12" stroke-linecap="round" stroke-linejoin="round"/>
<path d="M141.946 81.0249L136.271 81.5703L136.817 87.245L142.492 86.6996L141.946 81.0249Z" stroke="#263238" stroke-width="1.12" stroke-linecap="round" stroke-linejoin="round"/>
<path d="M99.9484 69.9073C99.9758 70.1894 99.919 70.4733 99.7851 70.7232C99.6512 70.973 99.4463 71.1775 99.1962 71.3109C98.9461 71.4443 98.6621 71.5005 98.38 71.4726C98.098 71.4446 97.8305 71.3337 97.6115 71.1538C97.3925 70.9738 97.2317 70.733 97.1495 70.4618C97.0673 70.1906 97.0673 69.901 97.1496 69.6298C97.2319 69.3586 97.3927 69.1178 97.6118 68.938C97.8308 68.7581 98.0983 68.6472 98.3804 68.6193C98.5665 68.6008 98.7544 68.6191 98.9334 68.6732C99.1124 68.7274 99.2789 68.8163 99.4235 68.9349C99.5681 69.0535 99.6879 69.1994 99.7761 69.3644C99.8642 69.5293 99.9189 69.71 99.9372 69.8961L99.9484 69.9073Z" fill="#263238"/>
<path d="M106.266 96.7083L176.03 90.0107" stroke="#263238" stroke-width="2.24" stroke-linecap="round" stroke-linejoin="round"/>
<path d="M106.715 101.368L176.48 94.6592" stroke="#263238" stroke-width="2.24" stroke-linecap="round" stroke-linejoin="round"/>
<path d="M107.24 106.8L166.746 101.077" stroke="#263238" stroke-width="2.24" stroke-linecap="round" stroke-linejoin="round"/>
<path d="M113.7 111.153L108.025 111.698L108.571 117.373L114.245 116.827L113.7 111.153Z" stroke="#263238" stroke-width="1.12" stroke-linecap="round" stroke-linejoin="round"/>
<path d="M123.985 110.172L118.311 110.718L118.856 116.392L124.531 115.847L123.985 110.172Z" stroke="#263238" stroke-width="1.12" stroke-linecap="round" stroke-linejoin="round"/>
<path d="M134.27 109.182L128.596 109.728L129.141 115.402L134.816 114.857L134.27 109.182Z" stroke="#263238" stroke-width="1.12" stroke-linecap="round" stroke-linejoin="round"/>
<path d="M144.557 108.214L138.883 108.76L139.428 114.434L145.103 113.889L144.557 108.214Z" stroke="#263238" stroke-width="1.12" stroke-linecap="round" stroke-linejoin="round"/>
<path d="M102.56 97.0674C102.587 97.3495 102.53 97.6334 102.396 97.8833C102.263 98.1331 102.058 98.3376 101.807 98.471C101.557 98.6044 101.273 98.6606 100.991 98.6327C100.709 98.6047 100.442 98.4938 100.223 98.3138C100.004 98.1339 99.8431 97.8931 99.7609 97.6219C99.6786 97.3506 99.6787 97.0611 99.7609 96.7899C99.8432 96.5187 100.004 96.2779 100.223 96.0981C100.442 95.9182 100.71 95.8073 100.992 95.7794C101.179 95.7609 101.369 95.7795 101.549 95.8342C101.729 95.8889 101.897 95.9787 102.043 96.0983C102.188 96.2179 102.309 96.3651 102.398 96.5314C102.486 96.6977 102.541 96.8798 102.56 97.0674Z" fill="#263238"/>
<path d="M108.877 123.868L178.642 117.171" stroke="#263238" stroke-width="2.24" stroke-linecap="round" stroke-linejoin="round"/>
<path d="M109.324 128.528L179.089 121.819" stroke="#263238" stroke-width="2.24" stroke-linecap="round" stroke-linejoin="round"/>
<path d="M109.852 133.96L169.357 128.236" stroke="#263238" stroke-width="2.24" stroke-linecap="round" stroke-linejoin="round"/>
<path d="M116.307 138.319L110.633 138.864L111.178 144.539L116.853 143.993L116.307 138.319Z" stroke="#263238" stroke-width="1.12" stroke-linecap="round" stroke-linejoin="round"/>
<path d="M126.595 137.329L120.92 137.874L121.465 143.549L127.14 143.003L126.595 137.329Z" stroke="#263238" stroke-width="1.12" stroke-linecap="round" stroke-linejoin="round"/>
<path d="M136.88 136.348L131.205 136.894L131.75 142.568L137.425 142.023L136.88 136.348Z" stroke="#263238" stroke-width="1.12" stroke-linecap="round" stroke-linejoin="round"/>
<path d="M147.165 135.358L141.49 135.903L142.036 141.578L147.71 141.033L147.165 135.358Z" stroke="#263238" stroke-width="1.12" stroke-linecap="round" stroke-linejoin="round"/>
<path d="M105.157 124.227C105.183 124.508 105.125 124.789 104.99 125.036C104.856 125.283 104.651 125.485 104.402 125.615C104.153 125.746 103.87 125.8 103.591 125.77C103.311 125.741 103.046 125.629 102.83 125.449C102.614 125.269 102.456 125.028 102.377 124.759C102.297 124.489 102.299 124.202 102.383 123.933C102.466 123.664 102.628 123.427 102.847 123.25C103.065 123.073 103.332 122.965 103.612 122.939C103.798 122.923 103.985 122.942 104.164 122.998C104.342 123.054 104.508 123.144 104.651 123.263C104.795 123.383 104.913 123.53 105 123.695C105.087 123.86 105.14 124.041 105.157 124.227Z" fill="#263238"/>
<path d="M111.564 151.812L181.329 145.104" stroke="#263238" stroke-width="2.24" stroke-linecap="round" stroke-linejoin="round"/>
<path d="M112.012 156.461L181.777 149.764" stroke="#263238" stroke-width="2.24" stroke-linecap="round" stroke-linejoin="round"/>
<path d="M112.527 161.893L172.033 156.181" stroke="#263238" stroke-width="2.24" stroke-linecap="round" stroke-linejoin="round"/>
<path d="M118.991 166.258L113.316 166.804L113.862 172.478L119.536 171.933L118.991 166.258Z" stroke="#263238" stroke-width="1.12" stroke-linecap="round" stroke-linejoin="round"/>
<path d="M129.29 165.278L123.615 165.823L124.161 171.498L129.835 170.952L129.29 165.278Z" stroke="#263238" stroke-width="1.12" stroke-linecap="round" stroke-linejoin="round"/>
<path d="M139.563 164.278L133.889 164.823L134.434 170.498L140.109 169.952L139.563 164.278Z" stroke="#263238" stroke-width="1.12" stroke-linecap="round" stroke-linejoin="round"/>
<path d="M149.848 163.287L144.174 163.832L144.719 169.507L150.394 168.961L149.848 163.287Z" stroke="#263238" stroke-width="1.12" stroke-linecap="round" stroke-linejoin="round"/>
<path d="M107.846 152.16C107.875 152.443 107.821 152.728 107.688 152.979C107.555 153.231 107.351 153.437 107.1 153.572C106.85 153.707 106.565 153.765 106.282 153.738C105.999 153.71 105.731 153.599 105.511 153.419C105.291 153.239 105.13 152.997 105.047 152.725C104.965 152.453 104.966 152.162 105.049 151.89C105.133 151.618 105.295 151.377 105.516 151.198C105.737 151.019 106.006 150.909 106.289 150.883C106.475 150.864 106.663 150.883 106.842 150.937C107.021 150.991 107.187 151.08 107.332 151.199C107.477 151.317 107.596 151.463 107.684 151.628C107.773 151.793 107.827 151.974 107.846 152.16Z" fill="#263238"/>
<path d="M107.656 86.6174L108.575 87.771L111.083 84.0078" stroke="#263238" stroke-width="2.24" stroke-linecap="round" stroke-linejoin="round"/>
<path d="M130.807 111.459L131.725 112.613L134.223 108.85" stroke="#263238" stroke-width="2.24" stroke-linecap="round" stroke-linejoin="round"/>
<path d="M123.18 140.176L124.098 141.33L126.607 137.566" stroke="#263238" stroke-width="2.24" stroke-linecap="round" stroke-linejoin="round"/>
<path d="M146.285 165.925L147.204 167.079L149.712 163.315" stroke="#263238" stroke-width="2.24" stroke-linecap="round" stroke-linejoin="round"/>
</svg>
