<?xml version="1.0" encoding="UTF-8" standalone="no" ?>
<!DOCTYPE svg PUBLIC "-//W3C//DTD SVG 1.1//EN" "http://www.w3.org/Graphics/SVG/1.1/DTD/svg11.dtd">
<svg xmlns="http://www.w3.org/2000/svg" xmlns:xlink="http://www.w3.org/1999/xlink" version="1.1" width="1200" height="628" viewBox="0 0 1200 628" xml:space="preserve">
<desc>Created with Fabric.js 5.2.4</desc>
<defs>
</defs>
<g transform="matrix(1 0 0 1 600 314)" id="8ad1df19-9fee-4388-848e-b0300f85c6d6"  >
<rect style="stroke: none; stroke-width: 1; stroke-dasharray: none; stroke-linecap: butt; stroke-dashoffset: 0; stroke-linejoin: miter; stroke-miterlimit: 4; fill: rgb(255,255,255); fill-rule: nonzero; opacity: 1; visibility: hidden;" vector-effect="non-scaling-stroke"  x="-600" y="-314" rx="0" ry="0" width="1200" height="628" />
</g>
<g transform="matrix(Infinity NaN NaN Infinity 0 0)" id="9aaf1652-83c2-4126-b62d-b1f0dd487da1"  >
</g>
<g transform="matrix(0.58 0 0 0.58 600 314)"  >
<g style="opacity: 1;" vector-effect="non-scaling-stroke"   >
		<g transform="matrix(1 0 0 1 0 0)"  >
<rect style="stroke: none; stroke-width: 1; stroke-dasharray: none; stroke-linecap: butt; stroke-dashoffset: 0; stroke-linejoin: miter; stroke-miterlimit: 4; fill: rgb(39,50,255); fill-rule: nonzero; opacity: 1; visibility: hidden;" vector-effect="non-scaling-stroke"  x="-540" y="-540" rx="0" ry="0" width="1080" height="1080" />
</g>
		<g transform="matrix(0.13 0 0 -0.13 -227.98 0)"  >
<path style="stroke: none; stroke-width: 1; stroke-dasharray: none; stroke-linecap: butt; stroke-dashoffset: 0; stroke-linejoin: miter; stroke-miterlimit: 4; fill: rgb(39,50,255); fill-rule: nonzero; opacity: 1;" vector-effect="non-scaling-stroke"  transform=" translate(-420.15, -414.64)" d="M 95 816 C 57 800 10 745 10 719 C 10 701 14 700 48 707 C 117 722 241 715 315 692 C 442 654 567 547 629 423 C 679 322 694 178 665 67 C 657 35 650 6 650 3 C 650 -10 744 11 771 31 C 829 72 830 80 830 418 C 830 856 856 830 420 830 C 197 829 118 826 95 816 z" stroke-linecap="round" />
</g>
		<g transform="matrix(0.13 0 0 -0.13 -245.4 14.72)"  >
<path style="stroke: none; stroke-width: 1; stroke-dasharray: none; stroke-linecap: butt; stroke-dashoffset: 0; stroke-linejoin: miter; stroke-miterlimit: 4; fill: rgb(39,50,255); fill-rule: nonzero; opacity: 1;" vector-effect="non-scaling-stroke"  transform=" translate(-289.51, -304.23)" d="M 53 598 C 11 589 10 588 10 550 L 10 511 L 53 526 C 76 534 124 541 160 542 C 294 542 410 467 472 342 C 501 284 505 266 505 195 C 505 129 500 105 478 58 L 451 0 L 490 0 C 528 0 529 1 550 58 C 568 106 571 131 568 210 C 564 317 537 390 475 466 C 383 578 208 633 53 598 z" stroke-linecap="round" />
</g>
		<g transform="matrix(0.13 0 0 -0.13 -130.46 21.62)"  >
<path style="stroke: none; stroke-width: 1; stroke-dasharray: none; stroke-linecap: butt; stroke-dashoffset: 0; stroke-linejoin: miter; stroke-miterlimit: 4; fill: rgb(39,50,255); fill-rule: nonzero; opacity: 1;" vector-effect="non-scaling-stroke"  transform=" translate(-1151.51, -252.52)" d="M 1043 480 C 989 456 960 410 960 350 C 960 272 1001 238 1137 206 C 1211 188 1244 164 1238 133 C 1229 87 1128 77 1038 114 L 982 137 L 965 99 C 955 79 951 57 954 52 C 968 29 1066 5 1145 5 C 1277 5 1350 59 1350 158 C 1350 225 1307 261 1194 291 C 1090 318 1064 336 1074 373 C 1086 422 1183 428 1281 386 C 1293 381 1301 388 1313 417 C 1327 452 1327 456 1312 468 C 1265 504 1112 512 1043 480 z" stroke-linecap="round" />
</g>
		<g transform="matrix(0.13 0 0 -0.13 134.45 21.22)"  >
<path style="stroke: none; stroke-width: 1; stroke-dasharray: none; stroke-linecap: butt; stroke-dashoffset: 0; stroke-linejoin: miter; stroke-miterlimit: 4; fill: rgb(39,50,255); fill-rule: nonzero; opacity: 1;" vector-effect="non-scaling-stroke"  transform=" translate(-3138.4, -255.5)" d="M 2890 255 L 2890 8 L 3053 12 C 3228 15 3252 22 3313 79 C 3434 190 3401 400 3252 468 C 3201 491 3180 494 3043 498 L 2890 503 L 2890 255 z M 3202 383 C 3270 343 3298 232 3254 173 C 3212 117 3185 105 3089 102 L 3000 98 L 3000 247 C 3000 329 3003 400 3008 404 C 3022 419 3168 403 3202 383 z" stroke-linecap="round" />
</g>
		<g transform="matrix(0.13 0 0 -0.13 -254.64 23.87)"  >
<path style="stroke: none; stroke-width: 1; stroke-dasharray: none; stroke-linecap: butt; stroke-dashoffset: 0; stroke-linejoin: miter; stroke-miterlimit: 4; fill: rgb(39,50,255); fill-rule: nonzero; opacity: 1;" vector-effect="non-scaling-stroke"  transform=" translate(-220.2, -235.65)" d="M 79 461 C 7 439 10 447 10 260 L 10 92 L 37 59 C 78 10 114 0 243 0 C 371 0 373 1 409 80 C 439 145 437 249 406 316 C 352 432 203 498 79 461 z" stroke-linecap="round" />
</g>
		<g transform="matrix(0.13 0 0 -0.13 -52 28.62)"  >
<path style="stroke: none; stroke-width: 1; stroke-dasharray: none; stroke-linecap: butt; stroke-dashoffset: 0; stroke-linejoin: miter; stroke-miterlimit: 4; fill: rgb(39,50,255); fill-rule: nonzero; opacity: 1;" vector-effect="non-scaling-stroke"  transform=" translate(-1740, -200)" d="M 1567 370 C 1536 353 1530 353 1530 365 C 1530 377 1517 380 1475 380 L 1420 380 L 1420 195 L 1420 10 L 1475 10 L 1530 10 L 1530 118 C 1530 237 1540 268 1584 288 C 1622 307 1665 289 1679 248 C 1685 231 1690 170 1690 114 L 1690 10 L 1740 10 L 1790 10 L 1790 110 C 1790 175 1795 223 1805 245 C 1821 284 1857 304 1896 294 C 1941 282 1950 256 1950 128 L 1950 10 L 2005 10 L 2060 10 L 2060 138 C 2060 251 2057 271 2038 310 C 1995 394 1889 415 1801 357 C 1778 342 1760 334 1760 340 C 1760 357 1683 390 1643 390 C 1622 390 1588 381 1567 370 z" stroke-linecap="round" />
</g>
		<g transform="matrix(0.13 0 0 -0.13 24.28 29.09)"  >
<path style="stroke: none; stroke-width: 1; stroke-dasharray: none; stroke-linecap: butt; stroke-dashoffset: 0; stroke-linejoin: miter; stroke-miterlimit: 4; fill: rgb(39,50,255); fill-rule: nonzero; opacity: 1;" vector-effect="non-scaling-stroke"  transform=" translate(-2312.11, -196.47)" d="M 2217 376 C 2151 358 2145 349 2165 309 C 2175 290 2184 274 2185 272 C 2186 271 2200 276 2216 285 C 2278 317 2380 295 2380 249 C 2380 232 2373 230 2318 230 C 2207 230 2151 202 2136 138 C 2127 97 2153 44 2192 24 C 2239 -1 2323 1 2361 29 C 2390 50 2390 50 2390 30 C 2390 13 2396 10 2440 10 L 2490 10 L 2490 143 C 2490 293 2478 331 2422 363 C 2380 388 2280 394 2217 376 z M 2380 142 C 2380 105 2350 78 2307 77 C 2265 76 2238 96 2242 124 C 2246 151 2285 170 2338 170 C 2378 170 2380 168 2380 142 z" stroke-linecap="round" />
</g>
		<g transform="matrix(0.13 0 0 -0.13 76.67 28.63)"  >
<path style="stroke: none; stroke-width: 1; stroke-dasharray: none; stroke-linecap: butt; stroke-dashoffset: 0; stroke-linejoin: miter; stroke-miterlimit: 4; fill: rgb(39,50,255); fill-rule: nonzero; opacity: 1;" vector-effect="non-scaling-stroke"  transform=" translate(-2705, -199.94)" d="M 2737 366 C 2693 344 2690 344 2690 361 C 2690 377 2682 380 2640 380 L 2590 380 L 2590 195 L 2590 10 L 2645 10 L 2700 10 L 2700 121 C 2700 230 2700 232 2729 261 C 2749 280 2769 290 2789 290 C 2819 290 2820 291 2820 340 C 2820 399 2809 403 2737 366 z" stroke-linecap="round" />
</g>
		<g transform="matrix(0.13 0 0 -0.13 198.82 29.11)"  >
<path style="stroke: none; stroke-width: 1; stroke-dasharray: none; stroke-linecap: butt; stroke-dashoffset: 0; stroke-linejoin: miter; stroke-miterlimit: 4; fill: rgb(39,50,255); fill-rule: nonzero; opacity: 1;" vector-effect="non-scaling-stroke"  transform=" translate(-3621.15, -196.32)" d="M 3518 375 C 3492 366 3468 356 3465 351 C 3462 345 3467 326 3476 307 C 3493 272 3493 272 3526 286 C 3576 307 3646 304 3670 280 C 3708 242 3697 233 3607 228 C 3514 223 3468 203 3449 158 C 3434 121 3445 68 3474 41 C 3522 -4 3634 -7 3681 36 C 3699 52 3700 52 3700 32 C 3700 12 3705 10 3750 10 L 3800 10 L 3800 135 C 3800 283 3787 328 3733 361 C 3688 389 3584 396 3518 375 z M 3688 138 C 3686 111 3678 101 3648 87 C 3615 71 3607 70 3583 82 C 3562 92 3555 102 3555 125 C 3555 158 3575 167 3648 169 C 3691 170 3691 170 3688 138 z" stroke-linecap="round" />
</g>
		<g transform="matrix(0.13 0 0 -0.13 258 29.06)"  >
<path style="stroke: none; stroke-width: 1; stroke-dasharray: none; stroke-linecap: butt; stroke-dashoffset: 0; stroke-linejoin: miter; stroke-miterlimit: 4; fill: rgb(39,50,255); fill-rule: nonzero; opacity: 1;" vector-effect="non-scaling-stroke"  transform=" translate(-4065, -196.66)" d="M 4018 380 C 3930 354 3880 287 3880 196 C 3880 130 3896 95 3944 52 C 4000 3 4108 -11 4175 23 C 4200 35 4250 81 4250 92 C 4250 96 4232 109 4210 120 C 4170 140 4170 140 4150 120 C 4086 56 3984 107 3986 202 C 3989 286 4089 332 4146 275 L 4171 250 L 4210 270 C 4232 281 4250 294 4250 299 C 4250 319 4187 370 4152 380 C 4109 392 4056 392 4018 380 z" stroke-linecap="round" />
</g>
</g>
</g>
</svg>